<?xml version="1.0" encoding="utf-8"?>
<!-- Generator: Adobe Illustrator 23.0.1, SVG Export Plug-In . SVG Version: 6.00 Build 0)  -->
<svg version="1.1" id="Layer_1" xmlns="http://www.w3.org/2000/svg" xmlns:xlink="http://www.w3.org/1999/xlink" x="0px" y="0px"
	 viewBox="0 0 500 150" style="enable-background:new 0 0 500 150;" xml:space="preserve">
<style type="text/css">
	.st0{fill:#00A99D;}
	.st1{fill:#F2F2F2;}
</style>
<g>
	<g>
		<path class="st0" d="M120.81,133.88H51.9c-13.49,0-24.43-10.94-24.43-24.43V40.54c0-13.49,10.94-24.43,24.43-24.43h68.91
			c13.49,0,24.42,10.94,24.42,24.43v68.91C145.24,122.95,134.3,133.88,120.81,133.88z"/>
		<g>
			<path class="st1" d="M98.3,56.14c-0.59-0.8-1.36-1.57-2.29-2.29c-0.85-0.64-1.97-1.21-3.37-1.69c-1.4-0.48-3.16-0.72-5.27-0.72
				c-0.93,0-1.89,0.18-2.86,0.54c-0.98,0.36-1.65,0.8-2.03,1.33c-0.38,0.52-0.36,1.13,0.06,1.81c0.42,0.68,1.61,1.35,3.56,1.99
				c0.76,0.32,1.53,0.6,2.29,0.84c0.76,0.24,1.48,0.56,2.16,0.96c3.56,1.45,7.16,3.27,10.8,5.48c3.64,2.21,6.69,4.84,9.15,7.89
				c2.62,3.22,4.43,6.57,5.4,10.06c0.97,3.5,1.31,6.95,1.02,10.36c-0.3,3.42-1.21,6.67-2.73,9.76c-1.52,3.09-3.52,5.86-5.97,8.31
				c-2.46,2.45-5.34,4.48-8.64,6.09c-3.3,1.61-6.86,2.57-10.67,2.89c-2.63,0.24-5.25,0.2-7.88-0.12c-2.63-0.32-5.21-1.01-7.75-2.05
				c-4.24-1.61-7.99-4.06-11.25-7.35c-3.26-3.29-5.7-7.55-7.31-12.77l7.41-2.34c1.91,1.14,3.83,2.28,5.74,3.42
				c-0.06-1.6-0.12-3.2-0.18-4.79c2.92-1.05,5.84-2.1,8.76-3.15c0.76,2.33,2.14,4,4.13,5c1.99,1.01,4.09,1.43,6.29,1.26
				c1.44-0.08,2.88-0.5,4.32-1.26c1.44-0.76,2.24-1.95,2.41-3.55c0.08-1.53-0.25-2.91-1.02-4.16c-0.76-1.24-1.74-2.37-2.92-3.38
				c-1.19-1-2.48-1.89-3.88-2.65c-1.4-0.76-2.73-1.38-4-1.87c-0.68-0.24-1.27-0.46-1.78-0.66c-0.51-0.2-1.02-0.38-1.53-0.54
				c-5.68-2.09-10.08-4.78-13.22-8.07c-3.13-3.29-5.17-6.79-6.1-10.48c-0.93-3.69-0.89-7.41,0.13-11.15
				c1.02-3.74,2.82-7.13,5.4-10.18c2.58-3.05,5.8-5.52,9.66-7.41c3.85-1.89,8.2-2.87,13.03-2.95c5.42-0.08,10.06,0.72,13.92,2.41
				c3.85,1.69,7.03,3.55,9.53,5.6c2.5,2.05,4.93,4.76,7.31,8.14l-8.28,4.78c-2.32-1.34-4.64-2.68-6.95-4.02
				c0.89,2.16,1.79,4.32,2.68,6.48L98.3,56.14z"/>
		</g>
	</g>
	<g>
		<g>
			<path class="st0" d="M173.52,88.59c-2.29,0-4.39-0.5-6.32-1.51c-1.93-1.01-3.41-2.44-4.44-4.29l3.19-2.39
				c0.69,1.5,1.7,2.67,3.03,3.51c1.33,0.85,2.94,1.27,4.82,1.27c1.66,0,2.96-0.33,3.9-1c0.94-0.67,1.41-1.54,1.41-2.61
				c0-0.68-0.21-1.31-0.63-1.88c-0.42-0.57-1.23-0.98-2.42-1.24l-5.64-1.22c-2.29-0.49-3.92-1.3-4.91-2.44
				c-0.99-1.14-1.48-2.55-1.48-4.24c0-1.33,0.37-2.55,1.1-3.66c0.74-1.11,1.79-1.99,3.15-2.66c1.36-0.67,2.97-1,4.82-1
				c2.32,0,4.27,0.47,5.87,1.41c1.6,0.94,2.79,2.28,3.57,4l-3.15,2.15c-0.53-1.43-1.39-2.48-2.58-3.15c-1.19-0.67-2.43-1-3.71-1
				c-1.13,0-2.09,0.16-2.89,0.49c-0.8,0.33-1.41,0.77-1.83,1.34c-0.42,0.57-0.63,1.21-0.63,1.93c0,0.72,0.23,1.37,0.7,1.98
				c0.47,0.6,1.35,1.03,2.63,1.29l5.87,1.27c2.19,0.46,3.73,1.2,4.6,2.24c0.88,1.04,1.32,2.31,1.32,3.81c0,1.53-0.39,2.87-1.17,4.03
				c-0.78,1.15-1.88,2.04-3.29,2.66C177,88.28,175.37,88.59,173.52,88.59z"/>
			<path class="st0" d="M191.7,59.03c-0.85,0-1.53-0.27-2.04-0.81s-0.78-1.24-0.78-2.12c0-0.88,0.26-1.59,0.78-2.12
				s1.2-0.81,2.04-0.81s1.53,0.27,2.04,0.81s0.78,1.24,0.78,2.12c0,0.88-0.26,1.59-0.78,2.12S192.55,59.03,191.7,59.03z
				 M193.58,63.71v24.39h-3.76V63.71H193.58z"/>
			<path class="st0" d="M202.32,88.11V63.71h3.29l0.23,3.81c0.85-1.5,1.95-2.59,3.31-3.27s2.76-1.02,4.2-1.02
				c1.66,0,3.23,0.39,4.7,1.17c1.47,0.78,2.6,1.98,3.38,3.61c0.5-1.11,1.21-2.01,2.11-2.71c0.91-0.7,1.9-1.22,2.98-1.56
				c1.08-0.34,2.11-0.51,3.08-0.51c1.5,0,2.94,0.33,4.3,0.98c1.36,0.65,2.48,1.66,3.36,3.02s1.32,3.12,1.32,5.27v15.61h-3.76V72.88
				c0-2.21-0.53-3.81-1.6-4.78c-1.06-0.98-2.38-1.46-3.95-1.46c-1.22,0-2.36,0.31-3.43,0.93c-1.06,0.62-1.92,1.53-2.56,2.73
				c-0.64,1.2-0.96,2.68-0.96,4.44v13.37h-3.76V72.88c0-2.21-0.53-3.81-1.6-4.78c-1.06-0.98-2.38-1.46-3.95-1.46
				c-1.03,0-2.09,0.29-3.17,0.85c-1.08,0.57-1.98,1.47-2.7,2.71c-0.72,1.24-1.08,2.86-1.08,4.88v13.03H202.32z"/>
			<path class="st0" d="M247.09,98.35V63.71h3.29l0.33,5.95l-0.52-0.68c0.41-1.14,1.02-2.14,1.83-3c0.81-0.86,1.8-1.54,2.96-2.02
				c1.16-0.49,2.41-0.73,3.76-0.73c1.91,0,3.67,0.5,5.29,1.51c1.61,1.01,2.9,2.46,3.88,4.34c0.97,1.89,1.46,4.16,1.46,6.83
				c0,2.63-0.49,4.9-1.48,6.81c-0.99,1.9-2.29,3.36-3.92,4.37c-1.63,1.01-3.41,1.51-5.36,1.51c-1.94,0-3.64-0.5-5.1-1.49
				s-2.5-2.25-3.12-3.78l0.47-0.73v15.76H247.09z M258.22,85.18c2.32,0,4.13-0.84,5.43-2.54c1.3-1.69,1.95-3.94,1.95-6.73
				c0-2.8-0.63-5.04-1.9-6.73c-1.27-1.69-3.05-2.54-5.33-2.54c-1.5,0-2.82,0.38-3.95,1.15c-1.13,0.76-2,1.84-2.63,3.22
				c-0.63,1.38-0.94,3.02-0.94,4.9c0,1.85,0.31,3.48,0.92,4.88c0.61,1.4,1.47,2.48,2.58,3.25C255.46,84.8,256.75,85.18,258.22,85.18
				z"/>
			<path class="st0" d="M280.11,52.49v29.42c0,1.24,0.22,2.09,0.66,2.56s1.14,0.71,2.11,0.71c0.63,0,1.14-0.05,1.55-0.15
				c0.41-0.1,0.96-0.28,1.64-0.54l-0.61,3.42c-0.5,0.23-1.05,0.4-1.64,0.51c-0.59,0.11-1.21,0.17-1.83,0.17
				c-1.91,0-3.33-0.54-4.25-1.61s-1.39-2.72-1.39-4.93V52.49H280.11z"/>
			<path class="st0" d="M300.74,88.59c-2.22,0-4.21-0.5-5.94-1.51c-1.74-1.01-3.09-2.46-4.06-4.37c-0.97-1.9-1.46-4.17-1.46-6.81
				s0.49-4.9,1.46-6.81s2.3-3.36,3.99-4.37c1.69-1.01,3.62-1.51,5.78-1.51c2.19,0,4.06,0.49,5.61,1.46c1.55,0.98,2.73,2.3,3.55,3.98
				c0.81,1.68,1.22,3.55,1.22,5.64c0,0.55-0.02,1.06-0.05,1.51c-0.03,0.46-0.08,0.86-0.14,1.22h-18.98v-3.46h17.33l-1.93,0.39
				c0-2.34-0.62-4.15-1.86-5.42c-1.24-1.27-2.86-1.9-4.86-1.9c-1.54,0-2.86,0.37-3.97,1.1c-1.11,0.73-1.97,1.79-2.58,3.17
				c-0.61,1.38-0.92,3.05-0.92,5c0,1.92,0.31,3.58,0.94,4.98c0.63,1.4,1.51,2.46,2.65,3.2c1.14,0.73,2.51,1.1,4.11,1.1
				c1.72,0,3.12-0.34,4.2-1.02c1.08-0.68,1.95-1.61,2.61-2.78l2.96,1.8c-0.59,1.11-1.35,2.07-2.28,2.88c-0.92,0.81-2,1.44-3.24,1.88
				S302.27,88.59,300.74,88.59z"/>
			<path class="st0" d="M333.38,73.32v4.05h-15.5v-4.05H333.38z"/>
			<path class="st0" d="M350.44,88.59c-2.29,0-4.39-0.5-6.32-1.51c-1.93-1.01-3.41-2.44-4.44-4.29l3.19-2.39
				c0.69,1.5,1.7,2.67,3.03,3.51c1.33,0.85,2.94,1.27,4.81,1.27c1.66,0,2.96-0.33,3.9-1c0.94-0.67,1.41-1.54,1.41-2.61
				c0-0.68-0.21-1.31-0.63-1.88c-0.42-0.57-1.23-0.98-2.42-1.24l-5.64-1.22c-2.29-0.49-3.92-1.3-4.91-2.44
				c-0.99-1.14-1.48-2.55-1.48-4.24c0-1.33,0.37-2.55,1.1-3.66c0.74-1.11,1.79-1.99,3.15-2.66c1.36-0.67,2.97-1,4.82-1
				c2.32,0,4.27,0.47,5.87,1.41c1.6,0.94,2.79,2.28,3.57,4l-3.15,2.15c-0.53-1.43-1.39-2.48-2.58-3.15c-1.19-0.67-2.43-1-3.71-1
				c-1.13,0-2.09,0.16-2.89,0.49c-0.8,0.33-1.41,0.77-1.83,1.34c-0.42,0.57-0.63,1.21-0.63,1.93c0,0.72,0.23,1.37,0.7,1.98
				c0.47,0.6,1.35,1.03,2.63,1.29l5.87,1.27c2.19,0.46,3.73,1.2,4.6,2.24c0.88,1.04,1.32,2.31,1.32,3.81c0,1.53-0.39,2.87-1.17,4.03
				c-0.78,1.15-1.88,2.04-3.29,2.66C353.91,88.28,352.29,88.59,350.44,88.59z"/>
			<path class="st0" d="M380.83,63.71v3.37h-17.01v-3.37H380.83z M372.28,56.78v24.59c0,1.2,0.33,2.1,0.99,2.68
				c0.66,0.59,1.5,0.88,2.54,0.88c0.91,0,1.69-0.16,2.35-0.49c0.66-0.33,1.25-0.76,1.79-1.32l1.32,3.27
				c-0.72,0.68-1.57,1.22-2.56,1.61c-0.99,0.39-2.12,0.59-3.41,0.59c-1.19,0-2.3-0.22-3.34-0.66c-1.03-0.44-1.86-1.14-2.47-2.1
				c-0.61-0.96-0.93-2.22-0.96-3.78v-24.2L372.28,56.78z"/>
			<path class="st0" d="M405.73,63.71L394.69,92.2c-0.59,1.59-1.24,2.85-1.95,3.78c-0.71,0.93-1.49,1.59-2.35,2
				c-0.86,0.41-1.86,0.61-2.98,0.61c-1.07,0-2.04-0.15-2.94-0.46c-0.89-0.31-1.68-0.72-2.37-1.24l1.03-3.42
				c0.63,0.58,1.29,1.02,2,1.29c0.7,0.28,1.4,0.41,2.09,0.41c0.81,0,1.58-0.26,2.3-0.78c0.72-0.52,1.38-1.58,1.97-3.17l1.22-3.17
				l-2.35-5.81l-7.47-18.54h4.27l5.87,15.91l1.46,4.34l1.69-4.83l5.5-15.42H405.73z"/>
			<path class="st0" d="M414.23,52.49v29.42c0,1.24,0.22,2.09,0.66,2.56s1.14,0.71,2.11,0.71c0.63,0,1.14-0.05,1.55-0.15
				c0.41-0.1,0.96-0.28,1.64-0.54l-0.61,3.42c-0.5,0.23-1.05,0.4-1.64,0.51c-0.59,0.11-1.21,0.17-1.83,0.17
				c-1.91,0-3.33-0.54-4.25-1.61s-1.39-2.72-1.39-4.93V52.49H414.23z"/>
			<path class="st0" d="M434.86,88.59c-2.22,0-4.21-0.5-5.94-1.51c-1.74-1.01-3.09-2.46-4.06-4.37c-0.97-1.9-1.46-4.17-1.46-6.81
				s0.49-4.9,1.46-6.81s2.3-3.36,3.99-4.37c1.69-1.01,3.62-1.51,5.78-1.51c2.19,0,4.06,0.49,5.61,1.46c1.55,0.98,2.73,2.3,3.55,3.98
				c0.81,1.68,1.22,3.55,1.22,5.64c0,0.55-0.02,1.06-0.05,1.51c-0.03,0.46-0.08,0.86-0.14,1.22h-18.98v-3.46h17.33l-1.93,0.39
				c0-2.34-0.62-4.15-1.86-5.42c-1.24-1.27-2.86-1.9-4.86-1.9c-1.54,0-2.86,0.37-3.97,1.1c-1.11,0.73-1.97,1.79-2.58,3.17
				c-0.61,1.38-0.92,3.05-0.92,5c0,1.92,0.31,3.58,0.94,4.98c0.63,1.4,1.51,2.46,2.65,3.2c1.14,0.73,2.51,1.1,4.11,1.1
				c1.72,0,3.12-0.34,4.2-1.02c1.08-0.68,1.95-1.61,2.61-2.78l2.96,1.8c-0.59,1.11-1.35,2.07-2.28,2.88c-0.92,0.81-2,1.44-3.24,1.88
				S436.39,88.59,434.86,88.59z"/>
			<path class="st0" d="M460.6,88.59c-2.29,0-4.39-0.5-6.32-1.51c-1.93-1.01-3.41-2.44-4.44-4.29l3.19-2.39
				c0.69,1.5,1.7,2.67,3.03,3.51c1.33,0.85,2.94,1.27,4.81,1.27c1.66,0,2.96-0.33,3.9-1c0.94-0.67,1.41-1.54,1.41-2.61
				c0-0.68-0.21-1.31-0.63-1.88c-0.42-0.57-1.23-0.98-2.42-1.24l-5.64-1.22c-2.29-0.49-3.92-1.3-4.91-2.44
				c-0.99-1.14-1.48-2.55-1.48-4.24c0-1.33,0.37-2.55,1.1-3.66c0.74-1.11,1.79-1.99,3.15-2.66c1.36-0.67,2.97-1,4.82-1
				c2.32,0,4.27,0.47,5.87,1.41c1.6,0.94,2.79,2.28,3.57,4l-3.15,2.15c-0.53-1.43-1.39-2.48-2.58-3.15c-1.19-0.67-2.43-1-3.71-1
				c-1.13,0-2.09,0.16-2.89,0.49c-0.8,0.33-1.41,0.77-1.83,1.34c-0.42,0.57-0.63,1.21-0.63,1.93c0,0.72,0.23,1.37,0.7,1.98
				c0.47,0.6,1.35,1.03,2.63,1.29l5.87,1.27c2.19,0.46,3.73,1.2,4.6,2.24c0.88,1.04,1.32,2.31,1.32,3.81c0,1.53-0.39,2.87-1.17,4.03
				c-0.78,1.15-1.88,2.04-3.29,2.66C464.08,88.28,462.45,88.59,460.6,88.59z"/>
		</g>
	</g>
</g>
</svg>
