<?xml version="1.0" encoding="utf-8"?>
<!-- Generator: Adobe Illustrator 23.0.1, SVG Export Plug-In . SVG Version: 6.00 Build 0)  -->
<svg version="1.1" id="Layer_1" xmlns="http://www.w3.org/2000/svg" xmlns:xlink="http://www.w3.org/1999/xlink" x="0px" y="0px"
	 viewBox="0 0 500 500" style="enable-background:new 0 0 500 500;" xml:space="preserve">
<style type="text/css">
	.st0{fill:#00A99D;}
	.st1{fill:#F2F2F2;}
</style>
<path class="st0" d="M396.29,500H103.71C46.43,500,0,453.57,0,396.29V103.71C0,46.43,46.43,0,103.71,0h292.59
	C453.57,0,500,46.43,500,103.71v292.59C500,453.57,453.57,500,396.29,500z"/>
<g>
</g>
<g>
	<path class="st1" d="M300.72,169.92c-2.52-3.41-5.76-6.65-9.71-9.72c-3.6-2.73-8.36-5.12-14.3-7.16
		c-5.94-2.05-13.4-3.07-22.39-3.07c-3.96,0-8.01,0.77-12.14,2.3c-4.14,1.54-7.01,3.41-8.63,5.63c-1.62,2.22-1.53,4.78,0.27,7.67
		c1.8,2.9,6.83,5.72,15.11,8.44c3.24,1.37,6.48,2.56,9.71,3.58c3.24,1.02,6.29,2.39,9.17,4.09c15.11,6.14,30.39,13.9,45.86,23.28
		c15.46,9.39,28.41,20.55,38.85,33.51c11.14,13.65,18.79,27.88,22.93,42.72c4.13,14.84,5.57,29.51,4.32,44
		c-1.27,14.5-5.13,28.32-11.6,41.44c-6.47,13.13-14.93,24.9-25.36,35.3c-10.44,10.41-22.66,19.02-36.69,25.84
		c-14.03,6.82-29.14,10.91-45.32,12.28c-11.15,1.02-22.31,0.85-33.45-0.51c-11.15-1.37-22.12-4.27-32.91-8.7
		c-17.99-6.82-33.91-17.22-47.75-31.21c-13.85-13.98-24.2-32.06-31.03-54.23l31.48-9.95c8.13,4.83,16.26,9.66,24.39,14.5
		c-0.26-6.78-0.52-13.57-0.78-20.35c12.39-4.45,24.78-8.91,37.18-13.36c3.24,9.9,9.08,16.97,17.54,21.23
		c8.45,4.27,17.35,6.06,26.71,5.37c6.11-0.34,12.22-2.13,18.35-5.37c6.11-3.24,9.53-8.27,10.25-15.09
		c0.35-6.48-1.08-12.36-4.32-17.65c-3.24-5.28-7.38-10.06-12.41-14.33c-5.04-4.26-10.52-8.01-16.46-11.26
		c-5.94-3.24-11.6-5.88-17-7.93c-2.88-1.02-5.4-1.96-7.55-2.81c-2.16-0.85-4.32-1.62-6.48-2.3c-24.1-8.87-42.81-20.29-56.12-34.28
		c-13.31-13.98-21.95-28.82-25.9-44.51c-3.96-15.68-3.78-31.47,0.54-47.33c4.32-15.86,11.96-30.27,22.93-43.23
		c10.97-12.96,24.63-23.45,41.01-31.46c16.36-8.01,34.8-12.19,55.31-12.54c23.02-0.34,42.71,3.07,59.08,10.23
		c16.36,7.16,29.85,15.09,40.47,23.79c10.61,8.7,20.95,20.21,31.03,34.54l-35.15,20.3c-9.84-5.68-19.68-11.37-29.52-17.05
		c3.79,9.18,7.58,18.36,11.37,27.53L300.72,169.92z"/>
</g>
</svg>
